<svg width="1200" height="900" viewBox="0 0 1200 900" fill="none" xmlns="http://www.w3.org/2000/svg">
  <rect width="1200" height="900" rx="48" fill="url(#paint0_linear)" />
  <circle cx="905" cy="160" r="112" fill="url(#paint1_radial)" fill-opacity="0.75" />
  <path d="M0 708L161 620L282 650L417 512L563 592L707 430L861 524L1003 398L1200 518V900H0V708Z" fill="url(#paint2_linear)" />
  <path d="M96 612L316 492L524 566L760 350L943 450L1096 350" stroke="rgba(255,255,255,0.42)" stroke-width="4" stroke-linecap="round" stroke-dasharray="10 12"/>
  <rect x="250" y="382" width="138" height="300" rx="18" fill="#F6E9D4" fill-opacity="0.92"/>
  <rect x="404" y="292" width="172" height="390" rx="18" fill="#E4C7A6" fill-opacity="0.94"/>
  <rect x="598" y="220" width="196" height="462" rx="20" fill="#F8F3EC" fill-opacity="0.95"/>
  <rect x="820" y="330" width="128" height="352" rx="18" fill="#E4C7A6" fill-opacity="0.92"/>
  <path d="M696 220V170C696 140.177 720.177 116 750 116V116C779.823 116 804 140.177 804 170V220" stroke="#FDFBF7" stroke-width="12"/>
  <path d="M796 234H908C930.091 234 948 251.909 948 274V330" stroke="#F8F3EC" stroke-width="12" stroke-linecap="round"/>
  <path d="M946 332L918 388" stroke="#F8F3EC" stroke-width="12" stroke-linecap="round"/>
  <path d="M946 332L992 388" stroke="#F8F3EC" stroke-width="12" stroke-linecap="round"/>
  <g opacity="0.8">
    <rect x="279" y="422" width="28" height="32" rx="6" fill="#223244"/>
    <rect x="330" y="422" width="28" height="32" rx="6" fill="#223244"/>
    <rect x="279" y="476" width="28" height="32" rx="6" fill="#223244"/>
    <rect x="330" y="476" width="28" height="32" rx="6" fill="#223244"/>
    <rect x="440" y="336" width="34" height="38" rx="6" fill="#223244"/>
    <rect x="506" y="336" width="34" height="38" rx="6" fill="#223244"/>
    <rect x="440" y="398" width="34" height="38" rx="6" fill="#223244"/>
    <rect x="506" y="398" width="34" height="38" rx="6" fill="#223244"/>
    <rect x="642" y="274" width="38" height="42" rx="6" fill="#223244"/>
    <rect x="712" y="274" width="38" height="42" rx="6" fill="#223244"/>
    <rect x="642" y="340" width="38" height="42" rx="6" fill="#223244"/>
    <rect x="712" y="340" width="38" height="42" rx="6" fill="#223244"/>
    <rect x="851" y="372" width="26" height="30" rx="6" fill="#223244"/>
    <rect x="894" y="372" width="26" height="30" rx="6" fill="#223244"/>
    <rect x="851" y="424" width="26" height="30" rx="6" fill="#223244"/>
    <rect x="894" y="424" width="26" height="30" rx="6" fill="#223244"/>
  </g>
  <path d="M146 726C294 666 475 646 686 666C845 680 1011 734 1134 796" stroke="#F6E9D4" stroke-width="6" stroke-linecap="round" opacity="0.7"/>
  <defs>
    <linearGradient id="paint0_linear" x1="114" y1="72" x2="1030" y2="822" gradientUnits="userSpaceOnUse">
      <stop stop-color="#102130"/>
      <stop offset="0.58" stop-color="#21384A"/>
      <stop offset="1" stop-color="#8D4E29"/>
    </linearGradient>
    <radialGradient id="paint1_radial" cx="0" cy="0" r="1" gradientUnits="userSpaceOnUse" gradientTransform="translate(905 160) rotate(90) scale(112)">
      <stop stop-color="#F3C88C"/>
      <stop offset="1" stop-color="#F3C88C" stop-opacity="0"/>
    </radialGradient>
    <linearGradient id="paint2_linear" x1="566" y1="430" x2="566" y2="900" gradientUnits="userSpaceOnUse">
      <stop stop-color="#1B2D3C" stop-opacity="0.22"/>
      <stop offset="1" stop-color="#0E1824" stop-opacity="0.82"/>
    </linearGradient>
  </defs>
</svg>
